<svg xmlns="http://www.w3.org/2000/svg" width="24" height="24" viewBox="0 0 24 24">
  <path id="github-mark"
    d="M9.007,0A9.083,9.083,0,0,0,6.159,17.683c.447.09.611-.2.611-.435,0-.21-.015-.931-.015-1.683-2.506.541-3.027-1.082-3.027-1.082a2.318,2.318,0,0,0-1-1.322c-.82-.556.06-.556.06-.556a1.889,1.889,0,0,1,1.387.931,1.908,1.908,0,0,0,2.625.751,1.933,1.933,0,0,1,.567-1.217c-2-.21-4.1-.992-4.1-4.477A3.553,3.553,0,0,1,4.19,6.16a3.3,3.3,0,0,1,.09-2.4s.761-.24,2.475.931a8.587,8.587,0,0,1,4.5,0c1.715-1.172,2.476-.931,2.476-.931a3.3,3.3,0,0,1,.089,2.4,3.484,3.484,0,0,1,.925,2.434c0,3.486-2.1,4.252-4.116,4.477a2.155,2.155,0,0,1,.611,1.683c0,1.217-.015,2.194-.015,2.494,0,.24.164.526.611.436A9.084,9.084,0,0,0,9.007,0Z"
    fill="#24292f" fill-rule="evenodd" />
</svg>